<svg xmlns="http://www.w3.org/2000/svg" viewBox="0 0 32 32" role="img" aria-labelledby="title">
  <title id="title">OpenAI</title>
  <rect width="32" height="32" rx="7" fill="#f4f4f5"/>
  <g fill="none" stroke="#080808" stroke-width="2.2" stroke-linecap="round" stroke-linejoin="round">
    <path d="M16 6.5c2.5 0 4.6 1.5 5.5 3.6"/>
    <path d="M23.5 13.1c1.2 2.2.8 4.8-.8 6.5"/>
    <path d="M20.7 23.1c-1.3 2.1-3.7 3.1-6.1 2.6"/>
    <path d="M11.4 25.1c-2.5-.1-4.5-1.6-5.4-3.7"/>
    <path d="M8.5 18.9c-1.2-2.2-.8-4.8.8-6.5"/>
    <path d="M11.3 8.9c1.3-2 3.7-3 6-2.5"/>
    <path d="M11.2 14.1 16 11.3l4.8 2.8v5.6L16 22.5l-4.8-2.8z"/>
  </g>
</svg>
